<svg width="16" height="21" viewBox="0 0 16 21" fill="none" xmlns="http://www.w3.org/2000/svg">
<path d="M13 10H3C1.89543 10 1 10.8954 1 12V18C1 19.1046 1.89543 20 3 20H13C14.1046 20 15 19.1046 15 18V12C15 10.8954 14.1046 10 13 10Z" stroke="#202020" stroke-width="1.5" stroke-linecap="round" stroke-linejoin="round"/>
<path d="M8 16C8.55228 16 9 15.5523 9 15C9 14.4477 8.55228 14 8 14C7.44772 14 7 14.4477 7 15C7 15.5523 7.44772 16 8 16Z" stroke="#202020" stroke-width="2" stroke-linecap="round" stroke-linejoin="round"/>
<path d="M4 10V5C4 3.93913 4.42143 2.92172 5.17157 2.17157C5.92172 1.42143 6.93913 1 8 1C9.06087 1 10.0783 1.42143 10.8284 2.17157C11.5786 2.92172 12 3.93913 12 5" stroke="#202020" stroke-width="1.5" stroke-linecap="round" stroke-linejoin="round"/>
</svg>
