<svg width="28" height="28" viewBox="0 0 28 28" fill="none" xmlns="http://www.w3.org/2000/svg">
<path d="M28 14C28 21.732 21.732 28 14 28C6.26801 28 0 21.732 0 14C0 6.26801 6.26801 0 14 0C21.732 0 28 6.26801 28 14ZM5.58715 14C5.58715 18.6463 9.35371 22.4128 14 22.4128C18.6463 22.4128 22.4128 18.6463 22.4128 14C22.4128 9.35371 18.6463 5.58715 14 5.58715C9.35371 5.58715 5.58715 9.35371 5.58715 14Z" fill="url(#paint0_linear_3256_130)"/>
<path d="M23.0565 3.32348C20.6151 1.25053 17.4536 0 14 0C6.26801 0 0 6.26801 0 14C0 21.732 6.26801 28 14 28C20.0588 28 25.2187 24.1512 27.1681 18.7652C25.0931 22.1729 21.4463 24.5412 17.2941 24.5412C12.1674 24.5412 7.81126 21.6573 6.2327 17.2376C5.81682 16.241 5.58715 15.1473 5.58715 14C5.58715 13.8425 5.59148 13.686 5.60003 13.5306C5.60001 13.5224 5.6 13.5141 5.6 13.5059C5.6 7.0474 10.0121 1.81176 17.2941 1.81176C19.3893 1.81176 21.3557 2.38008 23.0565 3.32348Z" fill="url(#paint1_linear_3256_130)"/>
<defs>
<linearGradient id="paint0_linear_3256_130" x1="0" y1="0" x2="25.1087" y2="25.8696" gradientUnits="userSpaceOnUse">
<stop stop-color="#12004B"/>
<stop offset="0.997071" stop-color="white"/>
</linearGradient>
<linearGradient id="paint1_linear_3256_130" x1="26.5289" y1="31.0471" x2="3.6005" y2="3.10144" gradientUnits="userSpaceOnUse">
<stop stop-color="#12004B"/>
<stop offset="1" stop-color="white"/>
</linearGradient>
</defs>
</svg>
