<svg width="84" height="84" viewBox="0 0 84 84" fill="none" xmlns="http://www.w3.org/2000/svg">
<path d="M21 21L28 14M28 14L21 7M28 14H21C13.268 14 7 20.268 7 28M63 63L56 70M56 70L63 77M56 70H63C70.732 70 77 63.732 77 56M46.9601 46.9601C49.698 48.2678 52.7635 49 56 49C67.598 49 77 39.598 77 28C77 16.402 67.598 7 56 7C44.402 7 35 16.402 35 28C35 31.2365 35.7322 34.302 37.0399 37.0399M49 56C49 67.598 39.598 77 28 77C16.402 77 7 67.598 7 56C7 44.402 16.402 35 28 35C39.598 35 49 44.402 49 56Z" stroke="#9896F0" stroke-width="6" stroke-linecap="round" stroke-linejoin="round"/>
</svg>
